# xmcd CD database file
#
# Track frame offsets:
#	225
#	16843
#	46069
#	67983
#	93163
#	116353
#	135130
#	163196
#	181885
#
# Disc length: 2877 seconds
#
# Revision: 0
# Processed by: cddbd v1.5.1PL2 Copyright (c) Steve Scherf et al.
# Submitted via: cdripper 1,0,33,916
#
DISCID=600b3a09
DTITLE=Howlin' Wolf - Rockin' The Blues - Live In Germany 1964
DYEAR=2003
DGENRE=Blues
TTITLE0=Shake It For Me
TTITLE1=Love Me
TTITLE2=Dust My Broom
TTITLE3=I Didn't Mean To Hurt Your Feelings
TTITLE4=Rockin' The Blues
TTITLE5=All My Life
TTITLE6=Going Down Slow
TTITLE7=Howlin' For My Darlin'
TTITLE8=Forty-Four
EXTD=YEAR: 2003
EXTT0=
EXTT1=
EXTT2=
EXTT3=
EXTT4=
EXTT5=
EXTT6=
EXTT7=
EXTT8=
PLAYORDER=
